<svg width="23" height="23" viewBox="0 0 23 23" fill="none" xmlns="http://www.w3.org/2000/svg">
<g clip-path="url(#clip0_233_834)">
<path d="M19.2491 7.26128C18.2885 7.26128 17.5605 6.51986 17.5605 5.66677C17.5605 4.81369 18.2885 4.07227 19.2491 4.07227C20.2098 4.07227 20.9377 4.81369 20.9377 5.66677C20.9377 6.51986 20.2098 7.26128 19.2491 7.26128Z" stroke="#333333" stroke-width="1.5"/>
<path fill-rule="evenodd" clip-rule="evenodd" d="M3.6792 12.7003C3.6792 16.6112 4.16031 18.3163 5.0837 19.2041C5.53474 19.6377 6.21255 19.9925 7.33404 20.2322C8.46941 20.4747 9.9581 20.5783 11.9335 20.5783C13.9089 20.5783 15.3976 20.4747 16.533 20.2322C17.6544 19.9925 18.3323 19.6377 18.7833 19.2041C19.7067 18.3163 20.1878 16.6112 20.1878 12.7003C20.1878 10.5115 20.0371 9.01366 19.7425 7.96329C20.2714 7.85883 20.7377 7.58978 21.0812 7.21426C21.5286 8.5646 21.6878 10.3519 21.6878 12.7003C21.6878 20.4231 19.9662 22.0783 11.9335 22.0783C3.90083 22.0783 2.1792 20.4231 2.1792 12.7003C2.1792 4.97749 3.90083 3.32227 11.9335 3.32227C14.3761 3.32227 16.2351 3.47532 17.6396 3.90549C17.2364 4.24642 16.9511 4.71335 16.8505 5.24229C16.7488 5.21659 16.643 5.19197 16.533 5.16845C15.3976 4.92586 13.9089 4.82227 11.9335 4.82227C9.9581 4.82227 8.46941 4.92586 7.33404 5.16845C6.21255 5.40808 5.53474 5.7629 5.0837 6.19654C4.16031 7.08431 3.6792 8.78941 3.6792 12.7003Z" fill="#333333"/>
<path d="M7.0564 14.2637C7.0564 14.2637 9.30743 8.79315 11.9336 12.7007C14.5597 16.6082 16.8107 11.1377 16.8107 11.1377" stroke="#333333" stroke-width="1.5" stroke-linecap="round" stroke-linejoin="round"/>
</g>
<defs>
<clipPath id="clip0_233_834">
<path d="M0.0114746 0.344727H11.8919C17.9659 0.344727 22.8899 5.26868 22.8899 11.3427C22.8899 17.4167 17.9659 22.3407 11.8919 22.3407H0.0114746V0.344727Z" fill="white"/>
</clipPath>
</defs>
</svg>
