<svg width="148" height="28" viewBox="0 0 148 28" fill="none" xmlns="http://www.w3.org/2000/svg">
<path d="M0.6875 0.818181H9.53409L15.6193 15.6477H15.9261L22.0114 0.818181H30.858V27H23.9034V11.8636H23.6989L17.8693 26.7955H13.6761L7.84659 11.7614H7.64205V27H0.6875V0.818181ZM49.7209 0.818181H56.8288V17.5909C56.8288 19.5852 56.3516 21.3111 55.397 22.7685C54.451 24.2173 53.13 25.3381 51.434 26.1307C49.7379 26.9148 47.7692 27.3068 45.5277 27.3068C43.2692 27.3068 41.2919 26.9148 39.5959 26.1307C37.8999 25.3381 36.5788 24.2173 35.6328 22.7685C34.6953 21.3111 34.2266 19.5852 34.2266 17.5909V0.818181H41.3345V16.9773C41.3345 17.7869 41.5135 18.5114 41.8714 19.1506C42.2294 19.7812 42.7237 20.2756 43.3544 20.6335C43.9936 20.9915 44.718 21.1705 45.5277 21.1705C46.3459 21.1705 47.0703 20.9915 47.701 20.6335C48.3317 20.2756 48.826 19.7812 49.1839 19.1506C49.5419 18.5114 49.7209 17.7869 49.7209 16.9773V0.818181ZM82.8604 0.818181V27H76.9286L67.4684 13.2443H67.315V27H60.207V0.818181H66.2411L75.5479 14.5227H75.7525V0.818181H82.8604ZM110.666 10.6364H103.456C103.404 10.0398 103.268 9.49858 103.047 9.01278C102.833 8.52699 102.535 8.10937 102.152 7.75994C101.777 7.40199 101.321 7.12926 100.784 6.94176C100.247 6.74574 99.6374 6.64773 98.9556 6.64773C97.7624 6.64773 96.7525 6.9375 95.9258 7.51705C95.1076 8.09659 94.4854 8.92756 94.0593 10.0099C93.6417 11.0923 93.4329 12.392 93.4329 13.9091C93.4329 15.5114 93.646 16.8537 94.0721 17.9361C94.5067 19.0099 95.1332 19.8196 95.9514 20.3651C96.7695 20.902 97.7539 21.1705 98.9045 21.1705C99.5607 21.1705 100.149 21.0895 100.669 20.9276C101.189 20.7571 101.64 20.5142 102.024 20.1989C102.407 19.8835 102.718 19.5043 102.957 19.0611C103.204 18.6094 103.37 18.1023 103.456 17.5398L110.666 17.5909C110.581 18.6989 110.27 19.8281 109.733 20.9787C109.196 22.1207 108.433 23.1776 107.444 24.1491C106.464 25.1122 105.25 25.8878 103.801 26.4759C102.352 27.0639 100.669 27.358 98.7511 27.358C96.3477 27.358 94.1914 26.8423 92.2823 25.8111C90.3817 24.7798 88.8775 23.2628 87.7695 21.2599C86.6701 19.2571 86.1204 16.8068 86.1204 13.9091C86.1204 10.9943 86.6829 8.53977 87.8079 6.54545C88.9329 4.54261 90.4499 3.02983 92.359 2.0071C94.2681 0.975851 96.3988 0.460226 98.7511 0.460226C100.404 0.460226 101.926 0.686078 103.315 1.13778C104.704 1.58949 105.923 2.25 106.971 3.11932C108.02 3.98011 108.863 5.04119 109.502 6.30256C110.142 7.56392 110.529 9.00852 110.666 10.6364ZM113.891 27V0.818181H120.999V11.0455H130.408V0.818181H137.516V27H130.408V16.7727H120.999V27H113.891ZM147.999 0.818181V27H140.891V0.818181H147.999Z" fill="#F86061"/>
</svg>
