<svg width="205" height="23" viewBox="0 0 205 23" fill="none" xmlns="http://www.w3.org/2000/svg">
<path d="M45.0205 9.11894V10.5139H40.5955V13.5889H44.0455V14.9839H40.5955V19.5439H38.8855V9.11894H45.0205ZM50.1902 19.6789C49.4102 19.6789 48.7052 19.5039 48.0752 19.1539C47.4452 18.7939 46.9502 18.2939 46.5902 17.6539C46.2302 17.0039 46.0502 16.2539 46.0502 15.4039C46.0502 14.5639 46.2352 13.8189 46.6052 13.1689C46.9752 12.5189 47.4802 12.0189 48.1202 11.6689C48.7602 11.3189 49.4752 11.1439 50.2652 11.1439C51.0552 11.1439 51.7702 11.3189 52.4102 11.6689C53.0502 12.0189 53.5552 12.5189 53.9252 13.1689C54.2952 13.8189 54.4802 14.5639 54.4802 15.4039C54.4802 16.2439 54.2902 16.9889 53.9102 17.6389C53.5302 18.2889 53.0102 18.7939 52.3502 19.1539C51.7002 19.5039 50.9802 19.6789 50.1902 19.6789ZM50.1902 18.1939C50.6302 18.1939 51.0402 18.0889 51.4202 17.8789C51.8102 17.6689 52.1252 17.3539 52.3652 16.9339C52.6052 16.5139 52.7252 16.0039 52.7252 15.4039C52.7252 14.8039 52.6102 14.2989 52.3802 13.8889C52.1502 13.4689 51.8452 13.1539 51.4652 12.9439C51.0852 12.7339 50.6752 12.6289 50.2352 12.6289C49.7952 12.6289 49.3852 12.7339 49.0052 12.9439C48.6352 13.1539 48.3402 13.4689 48.1202 13.8889C47.9002 14.2989 47.7902 14.8039 47.7902 15.4039C47.7902 16.2939 48.0152 16.9839 48.4652 17.4739C48.9252 17.9539 49.5002 18.1939 50.1902 18.1939ZM59.7557 19.6789C58.9757 19.6789 58.2707 19.5039 57.6407 19.1539C57.0107 18.7939 56.5157 18.2939 56.1557 17.6539C55.7957 17.0039 55.6157 16.2539 55.6157 15.4039C55.6157 14.5639 55.8007 13.8189 56.1707 13.1689C56.5407 12.5189 57.0457 12.0189 57.6857 11.6689C58.3257 11.3189 59.0407 11.1439 59.8307 11.1439C60.6207 11.1439 61.3357 11.3189 61.9757 11.6689C62.6157 12.0189 63.1207 12.5189 63.4907 13.1689C63.8607 13.8189 64.0457 14.5639 64.0457 15.4039C64.0457 16.2439 63.8557 16.9889 63.4757 17.6389C63.0957 18.2889 62.5757 18.7939 61.9157 19.1539C61.2657 19.5039 60.5457 19.6789 59.7557 19.6789ZM59.7557 18.1939C60.1957 18.1939 60.6057 18.0889 60.9857 17.8789C61.3757 17.6689 61.6907 17.3539 61.9307 16.9339C62.1707 16.5139 62.2907 16.0039 62.2907 15.4039C62.2907 14.8039 62.1757 14.2989 61.9457 13.8889C61.7157 13.4689 61.4107 13.1539 61.0307 12.9439C60.6507 12.7339 60.2407 12.6289 59.8007 12.6289C59.3607 12.6289 58.9507 12.7339 58.5707 12.9439C58.2007 13.1539 57.9057 13.4689 57.6857 13.8889C57.4657 14.2989 57.3557 14.8039 57.3557 15.4039C57.3557 16.2939 57.5807 16.9839 58.0307 17.4739C58.4907 17.9539 59.0657 18.1939 59.7557 18.1939ZM65.1661 15.3739C65.1661 14.5439 65.3361 13.8089 65.6761 13.1689C66.0261 12.5289 66.4961 12.0339 67.0861 11.6839C67.6861 11.3239 68.3511 11.1439 69.0811 11.1439C69.6211 11.1439 70.1511 11.2639 70.6711 11.5039C71.2011 11.7339 71.6211 12.0439 71.9311 12.4339V8.44395H73.6561V19.5439H71.9311V18.2989C71.6511 18.6989 71.2611 19.0289 70.7611 19.2889C70.2711 19.5489 69.7061 19.6789 69.0661 19.6789C68.3461 19.6789 67.6861 19.4989 67.0861 19.1389C66.4961 18.7689 66.0261 18.2589 65.6761 17.6089C65.3361 16.9489 65.1661 16.2039 65.1661 15.3739ZM71.9311 15.4039C71.9311 14.8339 71.8111 14.3389 71.5711 13.9189C71.3411 13.4989 71.0361 13.1789 70.6561 12.9589C70.2761 12.7389 69.8661 12.6289 69.4261 12.6289C68.9861 12.6289 68.5761 12.7389 68.1961 12.9589C67.8161 13.1689 67.5061 13.4839 67.2661 13.9039C67.0361 14.3139 66.9211 14.8039 66.9211 15.3739C66.9211 15.9439 67.0361 16.4439 67.2661 16.8739C67.5061 17.3039 67.8161 17.6339 68.1961 17.8639C68.5861 18.0839 68.9961 18.1939 69.4261 18.1939C69.8661 18.1939 70.2761 18.0839 70.6561 17.8639C71.0361 17.6439 71.3411 17.3239 71.5711 16.9039C71.8111 16.4739 71.9311 15.9739 71.9311 15.4039ZM87.8686 21.4339L86.0386 19.4539C85.5886 19.5839 85.0936 19.6489 84.5536 19.6489C83.5836 19.6489 82.6886 19.4239 81.8686 18.9739C81.0586 18.5139 80.4136 17.8789 79.9336 17.0689C79.4636 16.2489 79.2286 15.3289 79.2286 14.3089C79.2286 13.2889 79.4636 12.3739 79.9336 11.5639C80.4136 10.7539 81.0586 10.1239 81.8686 9.67394C82.6886 9.21394 83.5836 8.98394 84.5536 8.98394C85.5336 8.98394 86.4286 9.21394 87.2386 9.67394C88.0586 10.1239 88.7036 10.7539 89.1736 11.5639C89.6436 12.3739 89.8786 13.2889 89.8786 14.3089C89.8786 15.2689 89.6686 16.1389 89.2486 16.9189C88.8386 17.6889 88.2686 18.3089 87.5386 18.7789L90.0436 21.4339H87.8686ZM80.9836 14.3089C80.9836 15.0789 81.1336 15.7589 81.4336 16.3489C81.7436 16.9289 82.1686 17.3789 82.7086 17.6989C83.2486 18.0089 83.8636 18.1639 84.5536 18.1639C85.2436 18.1639 85.8586 18.0089 86.3986 17.6989C86.9386 17.3789 87.3586 16.9289 87.6586 16.3489C87.9686 15.7589 88.1236 15.0789 88.1236 14.3089C88.1236 13.5389 87.9686 12.8639 87.6586 12.2839C87.3586 11.7039 86.9386 11.2589 86.3986 10.9489C85.8586 10.6389 85.2436 10.4839 84.5536 10.4839C83.8636 10.4839 83.2486 10.6389 82.7086 10.9489C82.1686 11.2589 81.7436 11.7039 81.4336 12.2839C81.1336 12.8639 80.9836 13.5389 80.9836 14.3089ZM99.0902 11.2789V19.5439H97.3802V18.5689C97.1102 18.9089 96.7552 19.1789 96.3152 19.3789C95.8852 19.5689 95.4252 19.6639 94.9352 19.6639C94.2852 19.6639 93.7002 19.5289 93.1802 19.2589C92.6702 18.9889 92.2652 18.5889 91.9652 18.0589C91.6752 17.5289 91.5302 16.8889 91.5302 16.1389V11.2789H93.2252V15.8839C93.2252 16.6239 93.4102 17.1939 93.7802 17.5939C94.1502 17.9839 94.6552 18.1789 95.2952 18.1789C95.9352 18.1789 96.4402 17.9839 96.8102 17.5939C97.1902 17.1939 97.3802 16.6239 97.3802 15.8839V11.2789H99.0902ZM102.216 10.1839C101.906 10.1839 101.646 10.0789 101.436 9.86894C101.226 9.65895 101.121 9.39895 101.121 9.08894C101.121 8.77894 101.226 8.51894 101.436 8.30895C101.646 8.09894 101.906 7.99394 102.216 7.99394C102.516 7.99394 102.771 8.09894 102.981 8.30895C103.191 8.51894 103.296 8.77894 103.296 9.08894C103.296 9.39895 103.191 9.65895 102.981 9.86894C102.771 10.0789 102.516 10.1839 102.216 10.1839ZM103.056 11.2789V19.5439H101.346V11.2789H103.056ZM106.817 18.1489H110.567V19.5439H104.837V18.1489L108.602 12.6739H104.837V11.2789H110.567V12.6739L106.817 18.1489Z" fill="#333333"/>
<g clip-path="url(#clip0_233_829)">
<path d="M19.2491 7.26128C18.2885 7.26128 17.5605 6.51986 17.5605 5.66677C17.5605 4.81369 18.2885 4.07227 19.2491 4.07227C20.2098 4.07227 20.9377 4.81369 20.9377 5.66677C20.9377 6.51986 20.2098 7.26128 19.2491 7.26128Z" stroke="#333333" stroke-width="1.5"/>
<path fill-rule="evenodd" clip-rule="evenodd" d="M3.6792 12.7003C3.6792 16.6112 4.16031 18.3163 5.0837 19.2041C5.53474 19.6377 6.21255 19.9925 7.33404 20.2322C8.46941 20.4747 9.9581 20.5783 11.9335 20.5783C13.9089 20.5783 15.3976 20.4747 16.533 20.2322C17.6544 19.9925 18.3323 19.6377 18.7833 19.2041C19.7067 18.3163 20.1878 16.6112 20.1878 12.7003C20.1878 10.5115 20.0371 9.01366 19.7425 7.96329C20.2714 7.85883 20.7377 7.58978 21.0812 7.21426C21.5286 8.5646 21.6878 10.3519 21.6878 12.7003C21.6878 20.4231 19.9662 22.0783 11.9335 22.0783C3.90083 22.0783 2.1792 20.4231 2.1792 12.7003C2.1792 4.97749 3.90083 3.32227 11.9335 3.32227C14.3761 3.32227 16.2351 3.47532 17.6396 3.90549C17.2364 4.24642 16.9511 4.71335 16.8505 5.24229C16.7488 5.21659 16.643 5.19197 16.533 5.16845C15.3976 4.92586 13.9089 4.82227 11.9335 4.82227C9.9581 4.82227 8.46941 4.92586 7.33404 5.16845C6.21255 5.40808 5.53474 5.7629 5.0837 6.19654C4.16031 7.08431 3.6792 8.78941 3.6792 12.7003Z" fill="#333333"/>
<path d="M7.0564 14.2637C7.0564 14.2637 9.30743 8.79315 11.9336 12.7007C14.5597 16.6082 16.8107 11.1377 16.8107 11.1377" stroke="#333333" stroke-width="1.5" stroke-linecap="round" stroke-linejoin="round"/>
</g>
<defs>
<clipPath id="clip0_233_829">
<path d="M0.0114746 0.344727H11.8919C17.9659 0.344727 22.8899 5.26868 22.8899 11.3427C22.8899 17.4167 17.9659 22.3407 11.8919 22.3407H0.0114746V0.344727Z" fill="white"/>
</clipPath>
</defs>
</svg>
